# xmcd
#
# Track frame offsets:
#	150
#	18870
#	35201
#	58341
#	78569
#	93511
#	110602
#	131123
#	149598
#	164208
#	183600
#
# Disc length: 2657 seconds
#
# Revision: 0
# Processed by: cddbd v1.5.2PL0 Copyright (c) Steve Scherf et al.
# Submitted via: dBpowerAMP V4.0
#
DISCID=ac0a5f0b
DTITLE=Zygo and the Duce - From the Road
DYEAR=1900
DGENRE=Country
TTITLE0=Three Wise Men
TTITLE1=Table 23
TTITLE2=A Lullaby
TTITLE3=Southern Comfort Me
TTITLE4=Payin' Dues
TTITLE5=Can This be Love
TTITLE6=I Don't want You to Go
TTITLE7=I'll Love You (Jill's Song)
TTITLE8=What I Need (is a Jukebox)
TTITLE9=Wrong Side of the Bed
TTITLE10=I Wanna Believe Again
EXTD=
EXTT0=
EXTT1=
EXTT2=
EXTT3=
EXTT4=
EXTT5=
EXTT6=
EXTT7=
EXTT8=
EXTT9=
EXTT10=
PLAYORDER=
